<svg xmlns="http://www.w3.org/2000/svg" xmlns:xlink="http://www.w3.org/1999/xlink" xmlns:svgjs="http://svgjs.com/svgjs" version="1.1" width="512" height="512" x="0" y="0" viewBox="0 0 60 60" style="enable-background:new 0 0 512 512" xml:space="preserve"><g><g id="Page-1" fill="none" fill-rule="evenodd"><g id="068---Productivity" fill="rgb(0,0,0)"><path id="Shape" d="m49.965 25.883c.013-.293.035-.583.035-.883 0-.717-.04-1.462-.126-2.355-.1357487-1.1041446-.9847526-1.9857555-2.083-2.163l-2.515-.41c-.5051449-2.0899095-1.3352503-4.0875614-2.46-5.92l1.5-2.1c.6375323-.903945.6107598-2.11803708-.066-2.993-.524-.634-1.054-1.22-1.575-1.74-.5598473-.56430392-1.1493487-1.09839351-1.766-1.6-.8769604-.6711396-2.0903707-.68739971-2.985-.04l-2.079 1.5c-1.8330425-1.12403902-3.8309619-1.95377788-5.921-2.459l-.418-2.517c-.1654788-1.09799581-1.0460044-1.94902036-2.149-2.077-1.5661744-.16799794-3.1458256-.16799794-4.712 0-1.103449.12549684-1.9853795.9758566-2.151 2.074l-.42 2.528c-2.0900381.50522212-4.0879575 1.33496098-5.921 2.459l-2.085-1.5c-.9015083-.64992914-2.12383078-.62670502-3 .057-.60962988.49567553-1.1927686 1.02307059-1.747 1.58-.52.51733333-1.04966667 1.10366667-1.589 1.759-.66532918.87651748-.68355985 2.0837929-.045 2.98l1.5 2.089c-1.12433672 1.8326494-1.95441426 3.8302344-2.46 5.92l-2.527.411c-1.09768978.1813333-1.94346312 1.0662364-2.075 2.171-.085.884-.125 1.629-.125 2.346s.04 1.462.126 2.359c.14010311 1.0979292.98706263 1.9721706 2.08 2.147l2.517.42c.50654719 2.0902404 1.33691586 4.0883888 2.461 5.922l-1.492 2.082c-.64541334.9053422-.62267488 2.1263166.056 3.007.442.535.955 1.1 1.575 1.73.506.506 1.073 1.022 1.776 1.612.87839951.6579678 2.0826561.6680978 2.972.025l2.081-1.488c1.8333112 1.1246718 3.8315547 1.95508 5.922 2.461l.418 2.5c.1689901 1.1045148 1.0535886 1.9608945 2.163 2.094.9.085 1.64.125 2.345.125.3 0 .588-.022.883-.035 3.4681451 7.0446308 11.1055632 11.0250369 18.8665708 9.8327227 7.7610077-1.1923142 13.8514144-7.2817093 15.0450178-15.0425188 1.1936033-7.7608095-2.785534-15.3988886-9.8295886-18.8682039zm-27.1 22c-.2125624-.0349321-.3759805-.2069297-.4-.421l-.53-3.18c-.0679777-.4065765-.378475-.7297796-.782-.814-2.3125602-.4810832-4.5126036-1.3973437-6.483-2.7-.3455729-.2283087-.7961249-.2199578-1.133.021l-2.627 1.878c-.16209.1302316-.38786.1465571-.567.041-.616-.52-1.143-1-1.6-1.456-.57333333-.584-1.04866667-1.1046667-1.426-1.562-.13104496-.178534-.13104496-.421466 0-.6l1.89-2.64c.24141496-.3370934.24976878-.7881995.021-1.134-1.30265627-1.9703964-2.21891683-4.1704398-2.7-6.483-.08422038-.403525-.40742346-.7140223-.814-.782l-3.193-.532c-.19995313-.0302818-.36101007-.1798347-.406-.377-.078-.807-.115-1.491-.115-2.142s.037-1.335.114-2.145c.0375245-.209668.20595253-.3712297.417-.4l3.18-.519c.40802231-.0669908.73273656-.3781918.817-.783.48108317-2.3125602 1.39734373-4.5126036 2.7-6.483.22577886-.3467822.21464757-.7968043-.028-1.132l-1.882-2.633c-.12626681-.1652873-.13701897-.3914808-.027-.568.482-.586.97-1.123 1.446-1.6.5000978-.50181867 1.0257991-.97745318 1.575-1.425.1744743-.13650025.4195257-.13650025.594 0l2.63 1.888c.3373199.24263681.7895386.25139457 1.136.022 1.9703964-1.30265627 4.1704398-2.21891683 6.483-2.7.403525-.08422038.7140223-.40742346.782-.814l.532-3.2c.0259513-.20479979.1840854-.36782463.388-.4 1.4252922-.15200093 2.8627078-.15200093 4.288 0 .2063077.03482201.3645976.20208716.388.41l.53 3.19c.0679777.40657654.378475.72977962.782.814 2.3125602.48108317 4.5126036 1.39734373 6.483 2.7.3464614.22939457.7986801.22063681 1.136-.022l2.624-1.887c.1694439-.13296462.4056761-.14025824.583-.018.5553089.45275707 1.0870086.93372335 1.593 1.441.475.476.963 1.013 1.429 1.579.1222776.1750762.1198672.4084864-.006.581l-1.89 2.64c-.241415.3370934-.2497688.7881995-.021 1.134 1.3026563 1.9703964 2.2189168 4.1704398 2.7 6.483.0842634.4048082.4089777.7160092.817.783l3.174.518c.2098547.0258177.3797477.1828279.422.39.078.819.115 1.5.115 2.154v.05c-1.9265103-.6907366-3.957405-1.0452298-6.004-1.048-.017 0-.034 0-.051 0-.5306358-9.1109078-8.1647393-16.17481348-17.2893739-15.99801562-9.1246347.17679786-16.47937218 7.53112562-16.65667842 16.65575042-.17730624 9.1246247 6.88617412 16.7591218 15.99705232 17.2902652v.052c.0038856 2.0452801.3587007 4.0747279 1.049 6-.66 0-1.356-.036-2.179-.113zm11.135-21.983c-.6904021.3382521-1.3584356.7203672-2 1.144v-5.044h2zm0-5.9h-2c-1.1045695 0-2 .8954305-2 2v6.622c-.7215471.641997-1.3903642 1.3409108-2 2.09v-4.712c0-1.1045695-.8954305-2-2-2h-2c-1.1045695 0-2 .8954305-2 2v8h-2v-5c0-1.1045695-.8954305-2-2-2h-2c-1.1045695 0-2 .8954305-2 2v5h-.972c-3.86108516-5.126133-4.02904433-12.141943-.4176821-17.4469671 3.6113623-5.3050242 10.2001166-7.72124337 16.3849623-6.0086714 6.1848457 1.7125719 10.5923926 7.1736459 10.9607198 13.5806385-1.3496055.1565841-2.6768881.466932-3.956.925v-3.05c0-1.1045695-.8954305-2-2-2zm-9.875 19.956c-3.4619557-.1992091-6.7464298-1.5980012-9.289-3.956h10.214c-.458068 1.2791119-.7684159 2.6063945-.925 3.956zm-6.125-5.956h-2v-5h2zm8-.208c-.035.068-.066.139-.1.208h-1.9v-8h2zm16 24.208c-8.836556 0-16-7.163444-16-16s7.163444-16 16-16 16 7.163444 16 16c-.0104696 8.8322157-7.1677843 15.9895304-16 16z" fill-rule="nonzero" fill="#1aa090" data-original="#1aa090"/><path id="Shape" d="m42 28c-7.7319865 0-14 6.2680135-14 14s6.2680135 14 14 14 14-6.2680135 14-14c-.0082673-7.7285595-6.2714405-13.9917327-14-14zm9.155 21.741-.67-.67c-.3923789-.3789722-1.0160848-.3735524-1.4018186.0121814s-.3911536 1.0094397-.0121814 1.4018186l.67.67c-1.9003105 1.6120764-4.2574599 2.5890643-6.741 2.794v-.949c0-.5522847-.4477153-1-1-1s-1 .4477153-1 1v.949c-2.4835401-.2049357-4.8406895-1.1819236-6.741-2.794l.67-.67c.3789722-.3923789.3735524-1.0160848-.0121814-1.4018186s-1.0094397-.3911536-1.4018186-.0121814l-.67.67c-1.6120764-1.9003105-2.5890643-4.2574599-2.794-6.741h.949c.5522847 0 1-.4477153 1-1s-.4477153-1-1-1h-.949c.2049357-2.4835401 1.1819236-4.8406895 2.794-6.741l.67.67c.3923789.3789722 1.0160848.3735524 1.4018186-.0121814s.3911536-1.0094397.0121814-1.4018186l-.67-.67c1.9003105-1.6120764 4.2574599-2.5890643 6.741-2.794v.949c0 .5522847.4477153 1 1 1s1-.4477153 1-1v-.949c2.4835401.2049357 4.8406895 1.1819236 6.741 2.794l-.67.67c-.2599566.2510745-.3642126.6228779-.2726972.9725073.0915155.3496295.3645604.6226744.7141899.7141899.3496294.0915154.7214328-.0127406.9725073-.2726972l.67-.67c1.6120764 1.9003105 2.5890643 4.2574599 2.794 6.741h-.949c-.5522847 0-1 .4477153-1 1s.4477153 1 1 1h.949c-.2049357 2.4835401-1.1819236 4.8406895-2.794 6.741z" fill-rule="nonzero" fill="#1aa090" data-original="#1aa090"/><path id="Path" d="m31.311 14.05-2.689-.879c-.3431394-.1248337-.7270397-.0527165-1.0014841.188133-.2744443.2408494-.3957965.6121363-.3165725.9685794s.3464277.6413686.6970566.7432876l.294.1-14.721 6.929c-.4998177.2352733-.7142733.8311823-.479 1.331s.8311823.7142733 1.331.479l14.9-7.013-.159.486c-.1714428.5249434.1150805 1.0894839.64 1.261.1000463.0328135.2047106.0493572.31.049.4323067-.0001772.8155526-.2781314.95-.689l.879-2.688c.0840912-.2520785.0643921-.527261-.0547482-.764791s-.3279229-.417872-.5802518-.501209z" fill="#1aa090" data-original="#1aa090"/><path id="Shape" d="m44.85 42.889c.0952696-.2868936.1458607-.5867301.15-.889-.0052514-1.2667854-.8056491-2.3937454-2-2.816v-4.184c0-.5522847-.4477153-1-1-1s-1 .4477153-1 1v4.184c-1.0847844.3919509-1.8478141 1.3723669-1.9613869 2.5201839-.1135729 1.1478171.4425237 2.2587564 1.4294603 2.8556977.9869367.5969412 2.2290667.5736457 3.1929266-.0598816l1.739 1.3c.4418278.3313708 1.0686291.2418278 1.4-.2.3313708-.4418278.2418278-1.0686291-.2-1.4zm-3.85-.889c0-.5522847.4477153-1 1-1s1 .4477153 1 1-.4477153 1-1 1-1-.4477153-1-1z" fill-rule="nonzero" fill="#1aa090" data-original="#1aa090"/></g></g></g></svg>